<?xml version="1.0" encoding="UTF-8" standalone="no"?><!DOCTYPE svg PUBLIC "-//W3C//DTD SVG 1.1//EN" "http://www.w3.org/Graphics/SVG/1.1/DTD/svg11.dtd"><svg width="100%" height="100%" viewBox="0 0 35 16" version="1.1" xmlns="http://www.w3.org/2000/svg" xmlns:xlink="http://www.w3.org/1999/xlink" xml:space="preserve" xmlns:serif="http://www.serif.com/" style="fill-rule:evenodd;clip-rule:evenodd;stroke-linejoin:round;stroke-miterlimit:2;"><g id="fortnite"><path d="M33.769,7.097l-3.506,0c-0.634,0 -1.151,0.52 -1.151,1.157l0,3.034c0,0.638 0.517,1.158 1.151,1.158l3.506,0c0.634,0 1.151,-0.52 1.151,-1.158l0,-3.034c0,-0.637 -0.517,-1.157 -1.151,-1.157Zm-12.88,-3.99l-0.43,0l0,-0.076c0.117,0.003 0.193,-0.023 0.14,-0.127c-0.08,-0.157 0.265,-0.149 0.316,-0.115c0.091,0.06 0.031,0.234 -0.026,0.318Zm-0.589,0.106l0.523,0c-0.058,0.088 -0.221,0.385 -0.326,0.386c-0.043,-0.06 -0.182,-0.252 -0.197,-0.386Zm9.982,5.041l3.468,0l0,3.034l-3.468,0l0,-3.034Zm-7.118,0l4.827,0l0,0c0,-0.637 -0.518,-1.157 -1.152,-1.157l-3.705,0c-0.634,0 -1.151,0.52 -1.151,1.157l0,3.034c0,0.638 0.517,1.158 1.151,1.158l3.705,0c0.634,0 1.152,-0.52 1.152,-1.158l0,-2.002l-3.918,0l0,0.001c0,0.492 0.4,0.893 0.89,0.893l1.929,0l0,1.108l-3.728,0l0,-3.034Zm-15.072,0l4.608,0l0,0c0,-0.637 -0.517,-1.157 -1.152,-1.157l-3.565,0c-0.634,0 -1.152,0.52 -1.152,1.157l0,0.939c0,0.637 0.518,1.157 1.152,1.157l3.575,0l0,0.938l-4.727,0c0,0.638 0.518,1.158 1.152,1.158l3.685,0c0.634,0 1.151,-0.52 1.151,-1.158l0,-0.938c0,-0.637 -0.517,-1.157 -1.151,-1.157l-3.576,0l0,-0.939Zm-6.634,0l4.35,0l0,0c0,-0.637 -0.517,-1.157 -1.151,-1.157l-3.506,0c-0.634,0 -1.151,0.52 -1.151,1.157l0,3.034c0,0.638 0.517,1.158 1.151,1.158l3.506,0c0.634,0 1.151,-0.52 1.151,-1.158l-4.35,0l0,-3.034Zm20.54,-5.673c-0.023,0.011 -0.05,0.022 -0.086,0.029c-0.165,0.234 -0.066,0.207 -0.356,0.402c0.001,0.392 0.012,0.434 0.104,0.781c0.002,0.009 0,0.017 -0.004,0.024c-0.004,0.007 -0.011,0.012 -0.019,0.014c-0.07,0.015 -0.171,0.041 -0.23,0.052c0.002,0.012 0.03,0.234 -0.001,0.399c-0.049,0.26 -0.664,0.827 -0.81,0.856c-0.203,0.041 -0.43,-0.139 -0.785,-0.296c-0.097,-0.043 -0.425,-0.26 -0.597,-0.317c-0.142,-0.048 -0.285,0.3 -0.108,0.394c0.082,0.043 0.213,0.102 0.255,0.21c0.123,0.321 -0.019,1.556 -0.273,1.804c-0.12,0 -0.221,-0.111 -0.311,-0.082c-0.159,0.087 -0.058,0.578 0,0.663c0.982,1.015 0.865,1.766 1.282,2.327c0.19,0 0.065,0.202 0.209,0.44c0.039,0.122 -0.011,0.329 -0.031,0.408l0,0.306c-0.011,0.032 -0.022,0.064 -0.032,0.096l0,0.268c-0.029,0.13 -0.062,0.305 -0.089,0.427c-0.058,0.257 0.167,0.457 0.032,0.701c0,0.151 0,0.121 -0.089,0.242c0,0.234 -0.055,0.726 0,0.9c0.038,0.12 0.474,0.633 0.584,0.682c0.263,0.118 0.652,0.093 0.526,0.51c-0.772,0.238 -1.265,-0.134 -1.676,-0.14l-0.02,0.071c-0.263,0 -0.473,-0.065 -0.531,-0.084c0,-0.072 0.085,-0.62 0.114,-0.708c0.03,-0.047 0.06,-0.093 0.089,-0.14c0.032,-0.094 -0.032,-0.779 -0.038,-0.963c-0.164,-0.121 -0.197,-0.492 -0.197,-0.695c-0.047,-0.157 -0.047,-0.344 -0.057,-0.548c-0.004,-0.096 -0.061,-0.237 -0.025,-0.357c0.024,-0.082 0.117,-0.118 0.14,-0.185l0,-0.23c0.043,-0.241 0.03,-0.353 -0.115,-0.497c-0.361,0.005 -0.41,0.022 -0.609,-0.287c-0.061,-0.096 -0.566,-0.897 -0.615,-0.918c-0.42,-0.185 -0.337,-0.113 -0.52,-0.44c-0.008,0 -0.12,0.037 -0.219,0.186c-0.15,0.226 -0.416,0.959 -0.492,1.217c-0.042,0.143 0,0.302 -0.063,0.42c-0.047,0.086 -0.196,0.114 -0.229,0.172c-0.147,0.267 -0.037,0.246 -0.317,0.434c-0.051,0.066 -0.052,0.164 -0.089,0.242c-0.021,0.03 -0.042,0.06 -0.063,0.09c-0.048,0.101 0.05,0.287 0.031,0.35c-0.048,0.167 -0.112,0.336 -0.177,0.491c-0.129,0.307 -0.112,0.714 -0.242,0.902c-0.065,0.095 -0.222,0.003 -0.342,0.08c-0.007,0.066 -0.197,0.504 -0.235,0.625l0,0.695c0.036,0.117 0.134,0.229 0.105,0.377c-0.031,0.158 -0.578,0.156 -0.874,0.113c-0.199,-0.029 -0.258,-0.176 -0.255,-0.346c0.004,-0.201 0.408,-1.505 0.383,-1.591c-0.306,-0.347 0.083,-0.704 0.197,-1.027c0.056,-0.157 0.022,-0.377 0.083,-0.523c0.107,-0.197 0.215,-0.395 0.323,-0.593c0.197,-0.186 0.109,-0.196 0.216,-0.363c0.092,-0.145 0.205,-0.243 0.139,-0.466c-0.13,-0.447 0.153,-1.081 0.172,-1.549c-0.05,-0.053 -0.221,-0.036 -0.242,-0.179c-0.044,-0.291 0.109,-0.805 0.204,-0.854c0.041,-0.022 0.089,-0.002 0.127,-0.025c0,-0.218 -0.216,-1.431 -0.052,-1.492c0.101,-0.038 0.333,-0.058 0.377,-0.079c-0.002,-0.051 -0.037,-0.162 -0.08,-0.168c-0.072,-0.01 -0.22,-0.038 -0.337,-0.065c-0.361,-0.083 -0.027,-1.513 -0.023,-1.518c0.1,-0.132 0.56,0.046 0.616,-0.179c0.154,-0.197 -0.119,-0.957 0.406,-1.892c0.178,-0.315 0.517,-0.634 0.914,-0.499c0.132,0.045 0.052,0.237 0.285,0.032c0.006,-0.12 -0.049,-0.22 -0.083,-0.319c-0.387,-1.163 0.927,-1.793 1.847,-1.129c0.103,0.042 0.163,0.063 0.241,0.122c0.051,0.263 0.31,0.731 0.051,1.039c-0.107,0.023 -0.237,0.082 -0.318,0.14c-0.001,0.106 0.013,0.204 0.032,0.268c0.018,0.057 0.051,0.08 -0.035,0.115c-0.01,0.004 -0.006,0.04 0,0.053c0.215,0.042 0.444,-0.04 0.587,-0.098l0.172,0l0,-0.217l0.082,0l0,-0.17l0.081,0l0,0.294l0.214,0l0,0.093l3.172,0l0,0.166l0.14,0l0,-0.606l0.118,0l0,0.492l0.27,0l0,0.282l0.839,0l0,-0.084l0.14,0l0,0.037l0.397,0l0,0.234l-0.397,0l0,0.037l-0.14,0l0,-0.084l-0.839,0l0,0.084l-0.37,0l0,-0.057l-0.158,0l0,0.171l-1.401,0Z" style="fill:#fff;"/></g></svg>