<?xml version="1.0" encoding="UTF-8" standalone="no"?><!DOCTYPE svg PUBLIC "-//W3C//DTD SVG 1.1//EN" "http://www.w3.org/Graphics/SVG/1.1/DTD/svg11.dtd"><svg width="100%" height="100%" viewBox="0 0 32 9" version="1.1" xmlns="http://www.w3.org/2000/svg" xmlns:xlink="http://www.w3.org/1999/xlink" xml:space="preserve" xmlns:serif="http://www.serif.com/" style="fill-rule:evenodd;clip-rule:evenodd;stroke-linejoin:round;stroke-miterlimit:2;"><g id="fortnite"><g><path d="M0.088,8.862c0,0 -0.003,-2.516 -0.011,-3.305c-0.007,-0.678 -0.016,-1.484 -0.027,-2.416c-0.011,-0.933 -0.028,-2.02 -0.05,-3.141c0.295,0.007 0.63,0.007 1.006,0c0.325,0 0.708,0.027 1.15,0.019c0.443,-0.007 0.94,0.013 1.493,-0.002c-0.007,0.14 -0.011,0.306 -0.011,0.497c-0.007,0.17 -0.011,0.376 -0.011,0.62l0,0.862c-0.103,-0.007 -0.232,-0.011 -0.387,-0.011c-0.133,0 -0.302,0.002 -0.509,0.006c-0.206,0.003 -0.449,0.009 -0.73,0.016l0,0.409c0,0.133 -0.001,0.295 -0.005,0.487c-0.004,0.192 -0.002,0.238 0.005,0.482l0.481,0c0.255,0 0.338,-0.008 0.766,-0.022l0,0.712c0,0.17 -0.031,0.67 -0.031,0.91c0,0.239 0.004,-0.023 0.012,0.257c-0.096,-0.007 -0.214,-0.011 -0.354,-0.011l-0.268,0c-0.185,0 -0.314,0.004 -0.572,0.011c0.007,0.331 0.013,0.908 0.016,1.277c0.004,0.368 0.013,1.513 0.028,1.925l-1.991,0.418Z" style="fill:#fff;fill-rule:nonzero;"/><path d="M5.859,7.96c-0.421,0 -0.778,-0.078 -1.07,-0.234c-0.292,-0.157 -0.53,-0.388 -0.713,-0.693c-0.184,-0.306 -0.318,-0.683 -0.403,-1.131c-0.085,-0.449 -0.127,-0.968 -0.127,-1.559c0,-0.564 0.034,-1.079 0.102,-1.544c0.068,-0.465 0.189,-0.866 0.362,-1.202c0.173,-0.337 0.407,-0.598 0.703,-0.785c0.295,-0.187 0.674,-0.28 1.136,-0.28c0.469,0 0.854,0.086 1.156,0.26c0.303,0.173 0.54,0.423 0.714,0.749c0.173,0.326 0.292,0.723 0.356,1.192c0.065,0.469 0.097,1.002 0.097,1.6c-0.007,0.665 -0.058,1.229 -0.153,1.691c-0.095,0.462 -0.236,0.836 -0.423,1.121c-0.187,0.285 -0.424,0.492 -0.713,0.621c-0.289,0.129 -0.63,0.194 -1.024,0.194m0.02,-1.396c0.048,0 0.09,-0.024 0.128,-0.071c0.037,-0.048 0.068,-0.15 0.091,-0.306c0.024,-0.156 0.041,-0.387 0.052,-0.693c0.01,-0.306 0.015,-0.72 0.015,-1.243c0,-0.496 -0.005,-0.893 -0.015,-1.192c-0.011,-0.299 -0.028,-0.526 -0.052,-0.683c-0.023,-0.156 -0.056,-0.26 -0.096,-0.311c-0.041,-0.051 -0.089,-0.076 -0.143,-0.076c-0.068,0 -0.122,0.029 -0.163,0.087c-0.041,0.057 -0.071,0.171 -0.092,0.341c-0.02,0.17 -0.034,0.408 -0.04,0.713c-0.007,0.306 -0.011,0.703 -0.011,1.192c0,0.496 0.007,0.892 0.021,1.187c0.013,0.296 0.032,0.522 0.056,0.678c0.024,0.156 0.056,0.258 0.097,0.306c0.04,0.047 0.091,0.071 0.152,0.071" style="fill:#fff;fill-rule:nonzero;"/><path d="M11.144,8.084l-0.18,-0.721c-0.056,-0.234 -0.127,-0.423 -0.212,-0.752c-0.085,-0.328 -0.184,-0.698 -0.297,-1.108c-0.007,0.008 -0.021,0.011 -0.042,0.011l-0.106,0l0.042,2.28l-0.551,0l-0.626,0c-0.24,0 -0.502,0.003 -0.784,0.01c0.007,-0.565 0.014,-1.219 0.021,-1.961c0.007,-0.636 0.012,-1.4 0.016,-2.29c0.003,-0.891 0.038,-1.834 0.038,-2.958c0.318,-0.057 1.461,-0.025 1.709,-0.025c0.982,0 1.438,0.059 1.894,0.507c0.456,0.449 0.872,1.062 0.872,1.945c0,0.467 -0.049,0.856 -0.208,1.167c-0.159,0.311 -0.377,0.565 -0.653,0.763c0.043,0.141 0.149,0.468 0.319,0.981c0.169,0.512 0.417,1.126 0.742,2.024c-0.149,0.006 -0.322,0.017 -0.52,0.031c-0.169,0.014 -0.378,0.03 -0.625,0.048c-0.248,0.018 -0.53,0.033 -0.849,0.048m-0.837,-3.853c0.205,-0.006 0.366,-0.083 0.482,-0.23c0.117,-0.146 0.175,-0.392 0.175,-0.736c0,-0.338 -0.055,-0.604 -0.164,-0.799c-0.11,-0.194 -0.285,-0.282 -0.525,-0.263c0,0.255 0.002,0.502 0.005,0.741c0.004,0.24 0.009,0.455 0.016,0.646c0.007,0.223 0.011,0.437 0.011,0.641" style="fill:#fff;fill-rule:nonzero;"/><path d="M17.131,7.683c0.007,-0.537 0.01,-1.164 0.01,-1.883c0,-0.616 -0.003,-1.358 -0.01,-2.225c-0.008,-0.867 0.014,-1.689 -0.001,-2.792c0.157,-0.007 1.434,-0.266 1.698,-0.28c0.093,0.283 0.234,0.64 0.362,1.01c0.107,0.319 0.24,0.707 0.397,1.164c0.157,0.457 0.339,0.976 0.546,1.556c-0.022,-0.442 -0.054,-1.003 -0.097,-1.681c-0.042,-0.678 -0.103,-1.187 -0.182,-2.138c0.136,0.007 1.475,0.01 1.746,0.002c0.007,0.595 -0.026,6.174 0.01,7.393c-0.114,0.014 -1.191,0.133 -1.491,0.154c-0.107,-0.304 -0.229,-0.652 -0.364,-1.044c-0.122,-0.334 -0.264,-0.605 -0.429,-1.059c-0.164,-0.453 -0.346,-0.956 -0.546,-1.507c0.014,0.377 0.032,0.838 0.054,1.382c0.021,0.544 0.057,1.204 0.107,1.981c-0.143,0 -0.307,-0.004 -0.493,-0.011c-0.157,-0.008 -0.348,-0.013 -0.573,-0.017c-0.225,-0.003 -0.473,-0.005 -0.744,-0.005" style="fill:#fff;fill-rule:nonzero;"/><path d="M22.052,8.079l0,-2.234c0,-0.692 -0.003,-1.503 -0.011,-2.432c-0.007,-0.929 -0.018,-1.539 -0.033,-2.622l1.134,0c0.246,0 0.536,-0.004 0.868,-0.011c0,0.729 0.003,1.118 0.011,1.958c0.007,0.715 0.012,1.534 0.016,2.455c0.004,0.922 0.013,1.884 0.028,2.886l-0.498,0l-1.515,0Z" style="fill:#fff;fill-rule:nonzero;"/><path d="M24.192,2.965c0.006,-0.103 0.01,-0.243 0.01,-0.42c0,-0.147 -0.002,-0.343 -0.005,-0.586c-0.004,-0.243 -0.009,-0.545 -0.016,-0.907c0,0 3.397,-0.121 4.072,-0.136c-0.007,0.155 -0.014,0.42 -0.021,0.612c-0.007,0.169 -0.012,0.374 -0.015,0.614c-0.004,0.239 -0.002,0.331 0.005,0.64l-0.289,0c-0.097,0 -0.212,-0.002 -0.347,-0.005c-0.134,-0.004 -0.287,-0.006 -0.459,-0.006l0,1.04c0,0.383 0.001,0.995 0.005,1.471c0.003,0.475 0.008,0.482 0.015,1.057c0.007,0.575 0.014,1.216 0.021,1.924c-0.131,-0.007 -0.286,-0.011 -0.465,-0.011c-0.159,0 -0.353,0.002 -0.584,0.005c-0.231,0.004 -0.501,0.01 -0.811,0.017c0.006,-0.457 0.01,-0.984 0.01,-1.581c0,-0.509 -0.002,-0.602 -0.005,-1.317c-0.004,-0.715 -0.009,-1.522 -0.016,-2.422l-1.105,0.011Z" style="fill:#fff;fill-rule:nonzero;"/><path d="M12.968,2.433c0.007,-0.103 0.011,-0.243 0.011,-0.42c0,-0.147 -0.002,-0.343 -0.006,-0.586c-0.003,-0.243 -0.009,-0.546 -0.016,-0.907c0,0 3.277,0.227 4.031,0.335c-0.008,0.155 -0.015,0.515 -0.018,0.754c-0.004,0.24 -0.002,0.85 0.005,1.16l-0.309,0c-0.104,0 -0.074,-0.002 -0.218,-0.006c-0.144,-0.003 -0.308,-0.005 -0.492,-0.005l0,1.039c0,0.384 0.001,0.477 0.005,0.953c0.004,0.475 0.009,0.543 0.017,1.118c0.007,0.575 0.015,1.216 0.022,1.924c-0.14,-0.008 -0.306,-0.011 -0.498,-0.011c-0.169,0 -0.378,0.001 -0.624,0.005c-0.247,0.004 -0.537,0.009 -0.868,0.017c0.007,-0.457 0.011,-0.984 0.011,-1.581c0,-0.509 -0.002,-0.663 -0.006,-1.378c-0.004,-0.715 -0.009,-1.522 -0.016,-2.422l-1.031,0.011Z" style="fill:#fff;fill-rule:nonzero;"/><path d="M28.5,8.386c-0.007,-0.641 0.077,-1.513 0.071,-2.309c-0.007,-0.686 -0.016,-1.493 -0.026,-2.422c-0.01,-0.928 -0.022,-2.106 -0.036,-3.226c0.191,0 2.71,-0.301 3.33,-0.308l0,1.594c0,0.239 0.007,0.259 0.02,0.546c-0.19,0.008 -0.377,0.011 -0.561,0.011c-0.157,0.008 -0.322,0.011 -0.496,0.011c-0.173,0 -0.328,0.004 -0.464,0.011c-0.007,0.148 -0.009,0.282 -0.006,0.404c0.004,0.122 0.006,0.475 0.006,0.57l0,0.299c0.04,0 0.16,0.002 0.357,0.006c0.197,0.003 0.501,-0.002 0.909,-0.017l0,1.122c0,0.225 0.003,0.23 0.01,0.502l-0.357,0c-0.116,0 -0.249,-0.001 -0.398,-0.005c-0.15,-0.004 -0.31,-0.005 -0.481,-0.005l0,0.265c0,0.177 0.011,0.657 0.031,0.952c0.109,0.007 0.238,0.015 0.388,0.022c0.123,0.007 0.272,0.016 0.45,0.027c0.177,0.011 0.374,0.021 0.592,0.028c-0.007,0.125 -0.01,0.28 -0.01,0.464c-0.007,0.155 -0.01,0.347 -0.01,0.575l0,1.113c-0.3,-0.008 -2.89,-0.223 -3.319,-0.23" style="fill:#fff;fill-rule:nonzero;"/></g></g></svg>