<svg xmlns="http://www.w3.org/2000/svg" width="150.998" height="43.196" viewBox="0 0 150.998 43.196">
  <g id="rainbow-6-siege-1" transform="translate(-280.3 -257.6)">
    <g id="Group_211" data-name="Group 211" transform="translate(280.354 258.909)">
      <path id="Path_945" data-name="Path 945" d="M292.45,265.61a.73.73,0,0,0,.323.592.913.913,0,0,0,.7.215h2.421a.768.768,0,0,0,.861-.861V264a.85.85,0,0,0-.861-.861H292.45Zm3.443-1.506v1.345c0,.108-.054.161-.108.161h-2.259c-.108,0-.161-.054-.161-.108V264.05h2.421C295.839,264,295.893,264,295.893,264.1Zm35.934.968c.108.054.269.108.377.161h2.528c.215,0,.215.377,0,.377h-3.066l-.161.861h3.389a.611.611,0,0,0,.43-.161,1.238,1.238,0,0,0,0-1.829.97.97,0,0,0-.646-.108h-2.313c-.215,0-.215-.377,0-.377h3.174l.161-.861h-3.5a.611.611,0,0,0-.43.161,1.18,1.18,0,0,0,.054,1.775Zm-34.7,1.345h.914V264.7l1.13,1.721h.968l1.183-1.721v1.721h.861v-3.335h-.861l-1.668,2.474-1.614-2.474h-.914Zm13.879,0h1.022l.484-.807a.116.116,0,0,1,.108-.108h1.99v.861h.861v-3.335h-1.721c-.646,0-.914.377-1.237.861-.054.108-.161.215-.215.323Zm2.152-1.721.377-.592c.054-.108.108-.108.269-.108h.861v.7Zm2.9,1.721h.861v-2.1l2.528,2.1h.861v-3.335h-.861v2.1l-2.528-2.1h-.861Zm4.734-.861a.792.792,0,0,0,.861.861h3.389l-.108-.861h-3.174a.172.172,0,0,1-.161-.161V264h3.281l.161-.861h-4.3v2.421Zm-17.052,0a.792.792,0,0,0,.861.861H308l-.108-.861h-3.174a.172.172,0,0,1-.161-.161V264h3.281l.161-.861h-4.3v2.421ZM287.77,264h1.721v2.421h.861V264h1.721v-.915h-4.3Zm39.484,1.183v1.237h.861V265.18l1.775-2.1h-1.13l-1.076,1.291-1.076-1.291h-1.13Zm-18.828,1.237h2.313l.592-.861h-2.044v-2.474h-.861Zm21.517-2.9v.592h.646l.861-1.022h-1.13ZM284,260.446c0-.054,0-.054.054-.054,0-.161.108-.215.269-.323a.779.779,0,0,1,.592.054.717.717,0,0,1,.269.323v.43a.188.188,0,0,1-.108.054v.269h.054a.116.116,0,0,1,.108-.108.2.2,0,0,1,.161.054c0,.054,0,.054.054.054a3.429,3.429,0,0,0,.377.108h.054c.054,0,.108-.054.161,0,.054,0,.054,0,.054.054v.269h.161a.053.053,0,0,1,.054.054l.108.108c.323.054.484.054.43.108a.8.8,0,0,1,.323.054V261.9a.1.1,0,0,1,0-.161.1.1,0,0,1,.161.054.188.188,0,0,1-.054.108c.054,0,.108,0,.108.054.054,0,0,.054,0,.108s-.054.054-.054.108v.054c.108,0,.161.054.269.054s.161.054.269.054a.2.2,0,0,1-.054.161c-.108,0-.161-.054-.269-.054v-.054a.585.585,0,0,0-.269-.054c-.054.054-.108.054-.269.054a2.436,2.436,0,0,1-.43-.108h-.054c0,.054-.054.054-.108.054H286.1a.053.053,0,0,0-.054.054v.43c-.054,0-.161.054-.215.054s-.054,0-.108-.054v-.269c-.054.054-.161.108-.215.161a.188.188,0,0,1-.108.054.411.411,0,0,1-.108.269v.161q.081.161,0,.161v.269c.215.161.161.323.269.43a2.337,2.337,0,0,0,.323.377,1.789,1.789,0,0,1,.43.592,1.491,1.491,0,0,1,.054.484v.323a2.411,2.411,0,0,1,.054.592l-.054.054a.454.454,0,0,0-.108.377.549.549,0,0,0,.269.43c.215.108.323.215.269.323,0,.054,0,.054.054.108.054.108,0,.161-.054.215a.594.594,0,0,1-.43,0,.945.945,0,0,1-.269-.215v-.054a.19.19,0,0,0-.161-.161h-.108a.4.4,0,0,1-.161-.161v-.538a.116.116,0,0,0-.108-.108c-.054,0-.054-.054-.054-.108s0-.108.054-.108v-.054c-.054-.054-.054-.108-.108-.215a.348.348,0,0,1,.108-.269v-.054c-.108-.054-.215-.108-.215-.215v-.215a.746.746,0,0,1-.43-.377l-.054-.054a.686.686,0,0,1-.377-.269c-.054-.054-.108-.054-.161-.108h-.161a.635.635,0,0,1-.269.269l-.161.161c-.054.054-.108.054-.215.108a.116.116,0,0,0-.108.108c-.108.108-.161.161-.269.161a.3.3,0,0,1-.161.269.868.868,0,0,0-.377.215c-.054.054-.054.108-.108.161,0,.054-.108.161-.215.215h-.108v.323c0,.054-.054.108-.108.161a.2.2,0,0,0-.161.054.188.188,0,0,0-.054.108.116.116,0,0,1-.108.108.925.925,0,0,1-.43.054c-.161,0-.215-.054-.215-.108a.2.2,0,0,1,.054-.161c0-.054,0-.108.108-.161.054,0,.108-.054.161-.108a1.428,1.428,0,0,0,.269-.323.2.2,0,0,0,.054-.161.324.324,0,0,1,.054-.215l.161-.161c0-.054.054-.054.054-.108,0-.108,0-.215.054-.215l.323-.161a.053.053,0,0,0,.054-.054.2.2,0,0,1,.054-.161c.108-.108.215-.269.323-.377v-.054c-.054,0-.054-.054-.054-.108a.666.666,0,0,0,.108-.161,2.335,2.335,0,0,0,.215-.377c0-.054.054-.054,0-.108a.1.1,0,0,1,0-.161l.108-.108c.054,0,.054,0,.108.054,0,.054.054.054.054,0,.054-.054.108-.108.161-.108,0-.054.054-.054.108-.108v-.054a.682.682,0,0,1,.054-.323c-.054,0-.108-.108-.108-.215v-.377s-.054-.054-.054,0c-.323.054-.484.108-.538.054h-.323c-.108-.108-.161-.215-.108-.323,0-.054,0-.054.054-.108a.743.743,0,0,0,.161-.215.116.116,0,0,1,.108-.108c.054-.054.108-.054.161-.108a.742.742,0,0,1,.215-.161.188.188,0,0,0,.108-.054c.054-.054.108-.108.161-.108s.161-.054.215-.054a.777.777,0,0,1,.377-.108c0-.054,0-.108.108-.108v-.054a.116.116,0,0,1-.108-.108v-.108c-.054,0-.054,0-.054-.054l.054-.054v-.054c-.054-.054-.054-.054-.054-.108a.053.053,0,0,1,.054-.054H284Zm3.12,1.237h0c.054.108.054.108,0,.108s-.054-.054,0-.108Zm-2.1-.538a.2.2,0,0,0,.054-.161,1.07,1.07,0,0,1-.7-.054c.054.161.161.215.323.269.054,0,.108-.054.161-.108s.054-.054.054,0C284.973,261.145,284.973,261.2,285.027,261.145Z" transform="translate(-280.723 -260.034)" fill="#fff" fill-rule="evenodd"/>
      <path id="Path_946" data-name="Path 946" d="M280.508,271.023v-.269H280.4V270.7h.269v.054h-.108v.269Zm.215,0V270.7h.108l.054.215.054-.215h.108v.323h-.054v-.269l-.108.269h-.054l-.054-.269v.269Z" transform="translate(-280.4 -264.963)" fill="#fff"/>
    </g>
    <g id="Group_212" data-name="Group 212" transform="translate(280.3 257.6)">
      <path id="Path_947" data-name="Path 947" d="M300.8,287.24,297.353,269H293.1l-3.228,17.321-1.4-5.541c1.452-.646,2.259-2.044,2.259-4.949v-1.183c0-4.788-2.044-5.648-5.648-5.648H280.3v20.334h3.658v-8.015h.968l2.044,8.015H293.1l.7-3.712h2.959l.7,3.712h6.886V269H300.8Zm-13.61-11.3c0,1.829-.161,2.367-1.99,2.367h-1.237v-6.079H285.2c1.829,0,1.99.753,1.99,2.421Zm6.886,6.778.753-4.626.484-3.174.43,3.174.7,4.626Zm18.29-3.658L309.564,269h-4.519v20.334h3.55V277.181l3.658,12.157h3.6V269h-3.5Zm76.494-1.668c-2.1-1.721-2.851-2.367-2.851-3.55,0-.968.377-1.721,1.775-1.721,1.291,0,1.668.592,1.775,2.313l3.765-.377c-.376-3.658-1.614-5.379-5.648-5.379-3.335,0-5.433,1.56-5.433,5.326,0,2.851,1.721,4.357,4.142,6.348,2.367,1.99,3.335,2.69,3.335,4.142,0,1.13-.323,1.937-1.829,1.937-1.614,0-1.99-.377-2.1-3.335l-3.819.484c.108,3.712,1.13,6.294,5.81,6.294,4.25,0,5.81-1.99,5.81-5.379-.108-3.281-2.044-4.788-4.734-7.1Zm5.272-8.768h3.819v21.033h-3.819ZM377.451,257.6h1.937v43.2h-1.937Zm21.356,32.115h9.683v-3.5h-5.81V279.87h4.841v-3.281H402.68v-4.465h5.81v-3.5h-9.683Zm32.491-17.59v-3.5h-9.737v21.087H431.3v-3.5h-5.81V279.87h4.788v-3.281h-4.788v-4.465Zm-16.515,0c1.668,0,1.883.484,1.99,3.012l3.927-.43c-.269-3.5-1.13-6.025-5.864-6.025-3.981,0-5.917,1.775-5.917,6.079v8.822c0,4.357,1.829,6.186,5.218,6.186a4.723,4.723,0,0,0,3.281-1.076l.215,1.022h2.959V278.041H415v3.228h2.044v.592c-.054,3.766-.161,4.572-2.044,4.572-1.829,0-2.152-.807-2.152-2.636v-8.983c.054-1.775.43-2.69,1.937-2.69ZM352.6,280.247a26.849,26.849,0,0,1-2.152-1.883l1.452-9.306h-3.5l-1.183,8.177-.484,3.873-.538-3.873-1.183-8.177h-3.55l-1.345,8.23-.592,3.819-.43-3.819-1.076-8.23h-3.6l.108.968a6.5,6.5,0,0,0-4.088-1.13c-2.206,0-3.6.592-4.465,1.614-.968-1.13-2.636-1.452-4.9-1.452h-4.9v20.334h5.057c2.206,0,3.819-.215,4.841-1.4a5.744,5.744,0,0,0,4.411,1.56c4.465,0,5.863-2.528,5.863-6.079v-.592l.914,6.509h3.819l1.937-12,1.829,12h6.509a3.89,3.89,0,0,1-2.421-1.937l.646-4.142,2.313-.323c.108,2.9.484,3.281,2.1,3.281,1.56,0,1.829-.807,1.829-1.937C355.88,282.937,354.965,282.237,352.6,280.247Zm-32.545-8.23h1.237c1.883,0,2.044.646,2.044,2.313v.269c0,1.829-.215,2.421-2.044,2.421H320v-5Zm3.5,11.888c0,1.668-.215,2.421-2.1,2.421h-1.345v-6.24h1.4c1.829,0,2.044.538,2.044,2.367Zm9.091-.323c0,1.937-.646,2.636-2.044,2.636-1.452,0-1.99-.7-1.99-2.69V274.76c0-1.775.538-2.528,1.99-2.528,1.506,0,2.044.753,2.044,2.528Z" transform="translate(-280.3 -257.6)" fill="#fff"/>
      <path id="Path_948" data-name="Path 948" d="M421.216,283.857l-3.765.377c-.108-1.668-.484-2.259-1.775-2.259-1.4,0-1.775.753-1.775,1.668,0,1.184.753,1.829,2.851,3.55,2.743,2.259,4.68,3.766,4.68,6.993,0,2.528-.914,4.3-3.174,5h3.6V278.854H418.15c2.044.646,2.8,2.259,3.066,5Zm12.372-5.057h-3.55l1.829,5.057ZM429.5,299.134h4.25l-2.206-5.917ZM426.165,278.8h-.484v20.334h.161l3.873-10.7Z" transform="translate(-342.032 -267.396)" fill="#fff"/>
    </g>
  </g>
</svg>
